<svg xmlns="http://www.w3.org/2000/svg" width="28" height="28" viewBox="0 0 28 28">
  <g id="グループ_1642" data-name="グループ 1642" transform="translate(-135 -5058)">
    <g id="グループ_1580" data-name="グループ 1580" transform="translate(-755 495)">
      <g id="楕円形_27" data-name="楕円形 27" transform="translate(890 4563)" fill="none" stroke="#333" stroke-width="1">
        <circle cx="14" cy="14" r="14" stroke="none"/>
        <circle cx="14" cy="14" r="13.5" fill="none"/>
      </g>
    </g>
    <path id="twitter" d="M13.287,51.079c.009.132.009.263.009.395a8.576,8.576,0,0,1-8.635,8.635A8.577,8.577,0,0,1,0,58.747a6.278,6.278,0,0,0,.733.038,6.078,6.078,0,0,0,3.768-1.3,3.04,3.04,0,0,1-2.838-2.1,3.828,3.828,0,0,0,.573.047,3.21,3.21,0,0,0,.8-.1A3.035,3.035,0,0,1,.6,52.348V52.31a3.057,3.057,0,0,0,1.372.385,3.04,3.04,0,0,1-.94-4.059,8.627,8.627,0,0,0,6.258,3.176,3.426,3.426,0,0,1-.075-.7,3.038,3.038,0,0,1,5.253-2.077,5.976,5.976,0,0,0,1.926-.733,3.027,3.027,0,0,1-1.334,1.673,6.084,6.084,0,0,0,1.748-.47,6.524,6.524,0,0,1-1.522,1.569Z" transform="translate(141.596 5017.905)"/>
  </g>
</svg>
